<?xml version="1.0" standalone="no"?>
<!DOCTYPE svg PUBLIC "-//W3C//DTD SVG 20010904//EN"
 "http://www.w3.org/TR/2001/REC-SVG-20010904/DTD/svg10.dtd">
<svg version="1.0" xmlns="http://www.w3.org/2000/svg"
 width="500.000000pt" height="500.000000pt" viewBox="0 0 500.000000 500.000000"
 preserveAspectRatio="xMidYMid meet">

<g transform="translate(0.000000,500.000000) scale(0.100000,-0.100000)"
fill="#000000" stroke="none">
<path d="M1652 4963 c-12 -28 -17 -66 -17 -143 1 -134 23 -195 102 -281 66
-70 115 -101 199 -125 59 -16 63 -19 85 -66 32 -68 102 -136 178 -171 156 -73
346 -19 444 125 20 29 39 65 43 81 7 32 8 32 42 8 106 -75 284 -68 404 15 109
76 173 249 137 377 -9 35 -8 41 19 75 31 39 72 114 72 132 0 6 -26 10 -62 10
-63 -1 -63 -1 -88 -41 -31 -51 -89 -94 -162 -121 -31 -11 -64 -28 -73 -38 -23
-25 -15 -59 17 -83 l27 -20 61 22 c33 12 65 19 71 15 7 -4 9 -24 5 -57 -23
-171 -189 -264 -342 -193 -79 37 -134 122 -134 209 0 98 49 173 147 226 37 20
49 32 51 54 l3 27 -81 0 c-93 0 -120 -13 -170 -82 l-28 -38 -19 57 -20 58 -66
3 -66 3 24 -72 c14 -40 25 -75 25 -79 0 -4 -28 0 -62 8 -71 18 -176 6 -209
-24 -25 -22 -24 -66 0 -88 16 -15 29 -17 73 -10 104 14 166 -2 227 -59 120
-114 87 -318 -64 -388 -53 -24 -147 -25 -200 0 -44 20 -122 99 -108 110 4 4
33 15 64 24 68 21 81 35 77 79 -5 52 -38 62 -118 37 -156 -50 -305 8 -378 146
-22 42 -27 63 -27 130 0 66 4 89 26 133 l26 52 -69 0 -69 0 -17 -37z"/>
<path d="M2008 4977 c-15 -12 -38 -30 -53 -40 -34 -24 -30 -62 8 -90 l27 -21
43 21 c59 29 98 63 125 112 l23 41 -73 0 c-60 -1 -78 -4 -100 -23z"/>
<path d="M229 3197 c-102 -43 -165 -102 -205 -194 -19 -42 -24 -71 -24 -137 0
-79 5 -99 95 -366 52 -156 93 -285 91 -287 -2 -3 -21 0 -43 6 -21 6 -62 11
-90 11 l-53 0 0 -65 0 -64 30 5 c80 17 193 -45 234 -128 83 -166 -31 -348
-218 -348 l-46 0 0 -61 0 -62 79 5 c59 3 93 11 134 32 67 33 148 118 173 181
9 25 20 44 23 42 97 -53 128 -62 216 -62 78 0 98 4 152 29 149 68 234 231 204
391 l-12 66 32 37 c69 78 105 214 87 327 -25 165 -154 303 -321 345 -40 11
-48 17 -58 49 -35 108 -103 189 -199 237 -79 40 -201 45 -281 11z m226 -121
c70 -32 108 -80 139 -174 15 -44 35 -86 44 -95 9 -8 40 -17 69 -20 98 -11 186
-74 235 -167 33 -64 33 -195 -1 -260 -43 -84 -109 -135 -214 -169 -55 -18 -74
-66 -40 -103 21 -23 60 -23 122 1 49 18 49 18 55 -2 6 -23 -1 -68 -16 -112
-40 -109 -170 -177 -283 -146 -62 16 -120 65 -149 123 -65 130 -5 280 134 338
53 22 50 102 -4 116 -38 9 -130 -42 -187 -104 -32 -35 -51 -49 -54 -40 -3 7
-46 134 -95 283 -102 305 -107 337 -64 423 58 116 192 163 309 108z"/>
<path d="M349 2822 c-30 -25 -29 -64 3 -132 53 -116 134 -173 248 -173 88 -1
124 17 128 64 4 52 -15 63 -99 61 -102 -4 -146 28 -179 130 -11 37 -42 68 -66
68 -7 0 -22 -8 -35 -18z"/>
<path d="M4655 3010 c-194 -65 -291 -259 -231 -458 13 -42 16 -68 10 -76 -5
-7 -23 -32 -41 -55 -82 -108 -97 -283 -36 -413 56 -119 146 -196 275 -233 53
-15 59 -20 77 -60 41 -94 155 -183 254 -201 l37 -6 0 60 0 59 -44 17 c-55 21
-93 50 -116 89 l-19 30 66 22 c36 12 69 28 74 36 18 28 10 68 -16 85 -24 16
-30 16 -88 -2 -131 -40 -244 -17 -327 66 -63 63 -85 119 -85 215 0 93 20 140
91 217 24 26 44 53 44 60 0 7 -11 45 -25 83 -54 152 -15 274 106 336 115 58
262 10 319 -106 l19 -40 0 125 c1 69 -3 120 -7 113 -5 -9 -24 -4 -68 18 -82
41 -183 48 -269 19z"/>
<path d="M4762 2633 c-25 -10 -32 -50 -17 -94 32 -89 9 -172 -57 -207 -69 -37
-87 -81 -48 -117 42 -38 145 10 199 92 45 67 57 141 37 221 -21 85 -39 112
-74 111 -15 0 -33 -3 -40 -6z"/>
<path d="M4936 2215 c-21 -7 -43 -20 -47 -27 -28 -44 13 -104 63 -94 17 3 34
6 39 6 5 0 9 29 9 65 0 72 -1 73 -64 50z"/>
<path d="M2550 845 c-104 -29 -199 -113 -236 -210 l-16 -42 -53 29 c-139 75
-312 48 -426 -66 -53 -53 -85 -118 -99 -199 -10 -55 -9 -75 5 -128 29 -108 29
-106 1 -140 -15 -17 -33 -44 -42 -60 l-15 -29 69 0 c69 0 70 0 111 45 22 24
41 48 41 52 0 5 -11 43 -25 86 -42 129 -32 204 36 282 108 123 314 94 389 -55
9 -19 45 -119 79 -223 l63 -187 64 0 c35 0 64 1 64 3 0 1 -34 104 -75 227 -42
126 -75 242 -75 264 0 119 89 223 208 242 25 4 60 0 97 -10 82 -24 132 -78
169 -181 16 -44 35 -87 43 -96 8 -9 37 -20 66 -23 112 -15 197 -77 242 -177
24 -55 27 -70 22 -138 -2 -42 -8 -84 -12 -93 -6 -16 0 -18 58 -18 72 0 69 -4
82 90 8 55 -15 171 -45 231 -51 99 -182 200 -283 216 -29 4 -41 12 -49 32 -58
144 -114 212 -213 257 -69 32 -170 40 -245 19z"/>
<path d="M2636 455 c-24 -24 -20 -72 13 -141 52 -111 155 -172 273 -161 71 6
98 26 98 73 0 44 -26 58 -94 50 -42 -5 -59 -2 -96 16 -45 23 -53 34 -97 133
-15 33 -24 41 -49 43 -19 2 -38 -3 -48 -13z"/>
<path d="M2074 272 c-28 -18 -34 -50 -19 -94 19 -55 19 -115 0 -151 l-14 -28
72 3 71 3 9 43 c11 55 -15 180 -44 210 -20 22 -54 28 -75 14z"/>
<path d="M2760 22 l-35 -16 43 -4 c23 -2 59 -2 79 0 35 3 36 4 19 21 -22 21
-60 21 -106 -1z"/>
</g>
</svg>
